<?xml version="1.0" encoding="UTF-8"?>
<svg width="26px" height="26px" viewBox="0 0 26 26" version="1.1" xmlns="http://www.w3.org/2000/svg" xmlns:xlink="http://www.w3.org/1999/xlink">
    <!-- Generator: Sketch 61 (89581) - https://sketch.com -->
    <title>nigeria</title>
    <desc>Created with Sketch.</desc>
    <g id="Page-1" stroke="none" stroke-width="1" fill="none" fill-rule="evenodd">
        <g id="Artboard" transform="translate(-574.000000, -297.000000)">
            <g id="nigeria" transform="translate(574.000000, 297.000000)">
                <path d="M26,13 C26,20.1799708 20.1797057,26 13.0005923,26 C5.82029435,26 0,20.1799708 0,13 C0,5.82002916 5.82029435,0 13.0005923,0 C20.1797057,0 26,5.82002916 26,13" id="Fill-1" fill="#007747"></path>
                <path d="M22.6221273,13.0352087 C22.6221273,18.5578651 18.2092182,23.0352087 12.7634,23.0352087 C7.31758182,23.0352087 2.90467273,18.5578651 2.90467273,13.0352087 C2.90467273,7.51135351 7.31758182,3.0352087 12.7634,3.0352087 C18.2092182,3.0352087 22.6221273,7.51135351 22.6221273,13.0352087" id="Fill-4" fill="#006B40"></path>
                <g id="Group-7" transform="translate(3.448191, 4.035209)">
                    <path d="M19,9.5 C19,14.7463548 14.7463548,19 9.5,19 C4.25249089,19 0,14.7463548 0,9.5 C0,4.2536452 4.25249089,0 9.5,0 C14.7463548,0 19,4.2536452 19,9.5" id="Fill-6" fill="#008751"></path>
                    <g id="Fill-9" transform="translate(4.023833, 4.495686)" fill="#FFFFFF">
                        <path d="M9.07682431,7.67395491 L8.08385712,6.54505077 L9.07682431,6.54505077 L9.07682431,7.67395491 Z M2.60246075,5.7453232 L2.60246075,3.97856103 L4.49512146,3.97856103 L6.04898544,5.7453232 L2.60246075,5.7453232 Z M2.60246075,1.8257379 L3.79201369,3.17841518 L2.60246075,3.17841518 L2.60246075,1.8257379 Z M9.07682431,3.97856103 L9.07682431,5.7453232 L7.38033109,5.7453232 L5.82688537,3.97856103 L9.07682431,3.97856103 Z M11.2794213,5.7453232 L10.076902,5.7453232 L10.076902,3.97856103 L11.2794213,3.97856103 C11.5002665,3.97856103 11.6792851,3.79912424 11.6792851,3.57827897 C11.6792851,3.3574337 11.5002665,3.17841518 11.2794213,3.17841518 L10.076902,3.17841518 L10.076902,0.500248001 C10.076902,0.223773144 9.85271063,1.67865721e-13 9.57665404,1.67865721e-13 C9.30059745,1.67865721e-13 9.07682431,0.223773144 9.07682431,0.500248001 L9.07682431,3.17841518 L5.12335934,3.17841518 L2.47781702,0.169816629 C2.34062526,0.0138028295 2.12145306,-0.0409902208 1.92612211,0.0322066021 C1.73120943,0.105821693 1.60238302,0.291950756 1.60238302,0.500248001 L1.60238302,3.17841518 L0.399863787,3.17841518 C0.179018515,3.17841518 -2.66453526e-13,3.3574337 -2.66453526e-13,3.57827897 C-2.66453526e-13,3.79912424 0.179018515,3.97856103 0.399863787,3.97856103 L1.60238302,3.97856103 L1.60238302,5.7453232 L0.399863787,5.7453232 C0.179018515,5.7453232 -2.66453526e-13,5.92392344 -2.66453526e-13,6.14518698 C-2.66453526e-13,6.36603225 0.179018515,6.54505077 0.399863787,6.54505077 L1.60238302,6.54505077 L1.60238302,9.22321795 C1.60238302,9.49927454 1.82657443,9.72304769 2.10263102,9.72304769 C2.37868761,9.72304769 2.60246075,9.49927454 2.60246075,9.22321795 L2.60246075,6.54505077 L6.75209321,6.54505077 L9.20146804,9.32987618 C9.3386598,9.48588998 9.55866854,9.54151957 9.75274468,9.46706794 C9.94765737,9.39387112 10.076902,9.20732379 10.076902,8.99944481 L10.076902,6.54505077 L11.2794213,6.54505077 C11.5002665,6.54505077 11.6792851,6.36603225 11.6792851,6.14518698 C11.6792851,5.92392344 11.5002665,5.7453232 11.2794213,5.7453232 L11.2794213,5.7453232 Z" id="Fill-4"></path>
                    </g>
                </g>
            </g>
        </g>
    </g>
</svg>