<?xml version="1.0" encoding="UTF-8"?>
<svg width="24px" height="24px" viewBox="0 0 24 24" version="1.1" xmlns="http://www.w3.org/2000/svg" xmlns:xlink="http://www.w3.org/1999/xlink">
    <!-- Generator: Sketch 53.2 (72643) - https://sketchapp.com -->
    <title>usdt</title>
    <desc>Created with Sketch.</desc>
    <g id="Page-1" stroke="none" stroke-width="1" fill="none" fill-rule="evenodd">
        <g id="Desktop-HD" transform="translate(-135.000000, -66.000000)" fill-rule="nonzero">
            <g id="usdt" transform="translate(135.000000, 66.000000)">
                <circle id="Oval" fill="#26A17B" cx="11.9450782" cy="11.9885391" r="11.8564408"></circle>
                <g id="Group" transform="translate(4.384214, 5.909159)" fill="#FFFFFF">
                    <path d="M8.82466121,7.17352792 L8.82466121,7.17162174 C8.74269546,7.17734028 8.31952345,7.20212063 7.37787044,7.20212063 C6.62492926,7.20212063 6.09691735,7.18115264 5.91011169,7.17162174 L5.91011169,7.17352792 C3.01462398,7.04581385 0.854921817,6.54258228 0.854921817,5.93832316 C0.854921817,5.33597022 3.01653016,4.83083246 5.91011169,4.70311839 L5.91011169,6.67220253 C6.09882353,6.68554579 6.64208488,6.71795086 7.3912137,6.71795086 C8.29093075,6.71795086 8.74078928,6.67982725 8.82466121,6.67220253 L8.82466121,4.70502457 C11.7144304,4.83464483 13.868414,5.3378764 13.868414,5.94022934 C13.868414,6.54258228 11.7125242,7.04581385 8.82466121,7.1754341 M8.82466121,4.50106329 L8.82466121,2.73975279 L12.8562323,2.73975279 L12.8562323,0.0539448995 L1.88044676,0.0539448995 L1.88044676,2.73975279 L5.91201787,2.73975279 L5.91201787,4.50106329 C2.63529412,4.65165153 0.172509308,5.29975279 0.172509308,6.07747431 C0.172509308,6.85519583 2.6372003,7.5032971 5.91201787,7.65579151 L5.91201787,13.3018972 L8.82656739,13.3018972 L8.82656739,7.65579151 C12.0975726,7.50520328 14.556545,6.85710201 14.556545,6.07938049 C14.556545,5.30356515 12.0975726,4.65355771 8.82656739,4.50296947" id="Shape"></path>
                </g>
            </g>
        </g>
    </g>
</svg>