<?xml version="1.0" encoding="UTF-8"?>
<svg width="33px" height="33px" viewBox="0 0 33 33" version="1.1" xmlns="http://www.w3.org/2000/svg" xmlns:xlink="http://www.w3.org/1999/xlink">
    <!-- Generator: Sketch 61 (89581) - https://sketch.com -->
    <title>usd-coin-usdc-seeklogo.com</title>
    <desc>Created with Sketch.</desc>
    <g id="Page-1" stroke="none" stroke-width="1" fill="none" fill-rule="evenodd">
        <g id="usd-coin-usdc-seeklogo.com" transform="translate(0.500000, 0.500000)" fill-rule="nonzero">
            <path d="M16.0015992,31.9856072 C24.8643678,31.9856072 31.9936032,24.8563718 31.9936032,15.9936032 C31.9936032,7.13083458 24.8643678,0.0015992004 16.0015992,0.0015992004 C7.13883058,0.0015992004 0.0095952024,7.13083458 0.0095952024,15.9936032 C0.0095952024,24.8563718 7.13883058,31.9856072 16.0015992,31.9856072 Z" id="Path" fill="#2775CA"></path>
            <path d="M20.3994003,18.5251374 C20.3994003,16.1935032 19.0001,15.393903 16.2014993,15.0596702 C14.2024988,14.7926037 13.8026987,14.26007 13.8026987,13.3277361 C13.8026987,12.3954023 14.4695652,11.7957021 15.8016992,11.7957021 C17.0010995,11.7957021 17.667966,12.1955022 18.0005997,13.1950025 C18.0677661,13.3949025 18.2676662,13.5276362 18.4675662,13.5276362 L19.5342329,13.5276362 C19.8012994,13.5276362 20.0011994,13.3277361 20.0011994,13.0606697 L20.0011994,12.9935032 C19.7341329,11.5270365 18.5347326,10.3948026 17.0026987,10.262069 L17.0026987,8.66286857 C17.0026987,8.3958021 16.8027986,8.19590205 16.4701649,8.13033483 L15.4706647,8.13033483 C15.2035982,8.13033483 15.0036982,8.33023488 14.9381309,8.66286857 L14.9381309,10.1949025 C12.9391304,10.461969 11.6725637,11.7941029 11.6725637,13.4604698 C11.6725637,15.6593703 13.0046977,16.5261369 15.8032984,16.8587706 C17.6695652,17.1914043 18.2692654,17.5912044 18.2692654,18.6578711 C18.2692654,19.7245377 17.3369315,20.4569715 16.0703648,20.4569715 C14.3384308,20.4569715 13.7387306,19.7245377 13.5388306,18.7250375 C13.4716642,18.457971 13.2717641,18.3252374 13.0718641,18.3252374 L11.9396302,18.3252374 C11.6725637,18.3252374 11.4726637,18.5251374 11.4726637,18.7922039 L11.4726637,18.8593703 C11.7397301,20.5257371 12.8047976,21.7251374 15.0036982,22.0577711 L15.0036982,23.6569715 C15.0036982,23.924038 15.2035982,24.123938 15.5362319,24.1895052 L16.5357321,24.1895052 C16.8027986,24.1895052 17.0026987,23.9896052 17.0682659,23.6569715 L17.0682659,22.0577711 C19.0656672,21.7235382 20.3994003,20.3242379 20.3994003,18.5251374 L20.3994003,18.5251374 Z" id="Path" fill="#FFFFFF"></path>
            <path d="M12.6032984,25.5216392 C7.40589705,23.6553723 4.74002999,17.8582709 6.67346327,12.728036 C7.67296352,9.92943528 9.87186407,7.79770115 12.6032984,6.7982009 C12.8703648,6.66546727 13.0030985,6.46556722 13.0030985,6.13133433 L13.0030985,5.1990005 C13.0030985,4.93193403 12.8703648,4.73203398 12.6032984,4.66646677 C12.5361319,4.66646677 12.4033983,4.66646677 12.3362319,4.73363318 C6.0065967,6.73263368 2.54112944,13.462069 4.54012994,19.7933033 C5.73953023,23.5242379 8.60529735,26.390005 12.3362319,27.5894053 C12.6032984,27.7221389 12.8687656,27.5894053 12.935932,27.3223388 C13.0030985,27.2551724 13.0030985,27.1896052 13.0030985,27.0552724 L13.0030985,26.1229385 C13.0030985,25.9214393 12.8031984,25.655972 12.6032984,25.5216392 Z M19.6653673,4.73203398 C19.3983008,4.59930035 19.1328336,4.73203398 19.0656672,4.99910045 C18.9985007,5.06626687 18.9985007,5.13183408 18.9985007,5.26616692 L18.9985007,6.19850075 C18.9985007,6.46556722 19.1984008,6.73103448 19.3983008,6.86536732 C24.5957021,8.73163418 27.2615692,14.5287356 25.3281359,19.6589705 C24.3286357,22.4575712 22.1297351,24.5893053 19.3983008,25.5888056 C19.1312344,25.7215392 18.9985007,25.9214393 18.9985007,26.2556722 L18.9985007,27.188006 C18.9985007,27.4550725 19.1312344,27.6549725 19.3983008,27.7205397 C19.4654673,27.7205397 19.5982009,27.7205397 19.6653673,27.6533733 C25.9950025,25.6543728 29.4604698,18.9249375 27.4614693,12.5937031 C26.262069,8.7972014 23.3307346,5.93143428 19.6653673,4.73203398 L19.6653673,4.73203398 Z" id="Shape" fill="#FFFFFF"></path>
        </g>
    </g>
</svg>