<?xml version="1.0" encoding="UTF-8"?>
<svg width="26px" height="26px" viewBox="0 0 26 26" version="1.1" xmlns="http://www.w3.org/2000/svg" xmlns:xlink="http://www.w3.org/1999/xlink">
    <!-- Generator: Sketch 61 (89581) - https://sketch.com -->
    <title>malaysia</title>
    <desc>Created with Sketch.</desc>
    <defs>
        <polygon id="path-1" points="13.4611087 9.50639288 20.6457061 9.50639288 20.6457061 17.1526041 13.4611087 17.1526041"></polygon>
    </defs>
    <g id="Page-1" stroke="none" stroke-width="1" fill="none" fill-rule="evenodd">
        <g id="Artboard" transform="translate(-608.000000, -293.000000)">
            <g id="malaysia" transform="translate(608.000000, 293.008060)">
                <polygon id="Clip-2" points="0 0 26 0 26 26 0 26"></polygon>
                <path d="M13.0005923,26 C5.82029435,26 0,20.1799708 0,13 C0,5.82002916 5.82029435,0 13.0005923,0 C20.1797057,0 26,5.82002916 26,13 C26,20.1799708 20.1797057,26 13.0005923,26 Z" id="Fill-1" fill="#BF0001"></path>
                <path d="M22.6221273,13.0352087 C22.6221273,18.5578651 18.2092182,23.0352087 12.7634,23.0352087 C7.31758182,23.0352087 2.90467273,18.5578651 2.90467273,13.0352087 C2.90467273,7.51135351 7.31758182,3.0352087 12.7634,3.0352087 C18.2092182,3.0352087 22.6221273,7.51135351 22.6221273,13.0352087" id="Fill-4" fill="#AB0001"></path>
                <path d="M22.9009182,13.5352087 C22.9009182,18.7815635 18.5459182,23.0352087 13.1745545,23.0352087 C7.80200909,23.0352087 3.44819091,18.7815635 3.44819091,13.5352087 C3.44819091,8.2888539 7.80200909,4.0352087 13.1745545,4.0352087 C18.5459182,4.0352087 22.9009182,8.2888539 22.9009182,13.5352087" id="Fill-6" fill="#C90001"></path>
                <mask id="mask-2" fill="white">
                    <use xlink:href="#path-1"></use>
                </mask>
                <g id="Clip-2"></g>
                <path d="M19.3880117,16.996473 C19.3057133,17.131715 19.174927,17.1568762 19.0239593,17.1521585 C18.8310561,17.1458682 18.6381528,17.1511101 18.4447254,17.150848 C18.2038585,17.1497996 18.1257536,17.07484 18.1257536,16.8407875 C18.1265399,15.3258682 18.126802,13.8106867 18.1270641,12.2952432 L18.1270641,12.140344 C18.1178907,12.1382472 18.1097657,12.1361504 18.1005924,12.1337916 C18.0641609,12.2247391 18.026419,12.3154246 17.9918222,12.4068964 C17.579544,13.5071787 17.1688383,14.6079851 16.7560359,15.7082674 C16.6029714,16.1174004 16.4457133,16.5257472 16.2892416,16.9338319 C16.2410157,17.0596383 16.1762778,17.1039327 16.0352698,17.1055053 C15.8169432,17.1078641 15.5980924,17.1070779 15.3795036,17.1060295 C15.1942012,17.1055053 15.136802,17.0627835 15.0733746,16.8842956 C14.8081327,16.1399408 14.5405319,15.3966343 14.2784351,14.6512311 C14.0163383,13.90609 13.7594835,13.1593762 13.4997456,12.4134488 C13.4934553,12.3937916 13.4848061,12.3751827 13.4533545,12.3552633 C13.4502093,12.3885496 13.4433948,12.4223601 13.4433948,12.4559085 C13.4428706,13.9260093 13.4428706,15.395848 13.443919,16.8656867 C13.443919,17.0685496 13.3718424,17.1456061 13.1590198,17.1495375 C12.9477698,17.1537311 12.7362577,17.1513722 12.5247456,17.1500617 C12.2836166,17.1492754 12.2031528,17.0719569 12.2034143,16.8415738 C12.2078706,15.2634891 12.2131125,13.6854045 12.2175682,12.1075819 C12.2194028,11.3485496 12.2201891,10.5887311 12.2220238,9.82917463 C12.222548,9.58044479 12.2951488,9.50889237 12.5506932,9.50889237 C12.9147456,9.50863027 13.2793222,9.50836818 13.6433746,9.50889237 C13.8216004,9.50915447 13.877427,9.54296495 13.9371851,9.70231979 C14.1987577,10.407098 14.4584956,11.1129246 14.7179714,11.818227 C14.9161166,12.3563117 15.1168827,12.8938722 15.3066407,13.43484 C15.4489593,13.8405658 15.5745036,14.2510093 15.7086972,14.6593561 C15.7228504,14.7015537 15.7417214,14.7421787 15.7645238,14.7995779 C15.8879714,14.4420779 15.9998867,14.1018762 16.1222859,13.7648198 C16.3083746,13.2521585 16.4986569,12.7408077 16.6926085,12.2307674 C17.010794,11.3975617 17.3318625,10.5656666 17.6539795,9.73324721 C17.731298,9.53274318 17.771923,9.50889237 17.991298,9.50889237 C18.3448666,9.50889237 18.698173,9.51361011 19.0517416,9.5065335 C19.2055924,9.50365044 19.3198666,9.54453753 19.3880117,9.68135205 L19.3880117,16.996473 Z" id="Fill-1" fill="#FFCC00"></path>
                <path d="M8.16832708,10.4436605 L8.16832708,10.526221 C8.16832708,11.316967 8.16911337,12.1074508 8.16623031,12.8974105 C8.16623031,12.9783984 8.18772224,13.0072291 8.27552466,13.0053944 C8.53788353,13.0006766 8.8005045,13.0088016 9.06207708,13.001725 C9.22510128,12.9975315 9.39048434,12.9857371 9.54983918,12.9569065 C10.2234279,12.8376525 10.638065,12.4523702 10.7088311,11.8639629 C10.7725206,11.3374105 10.6013714,10.8632775 10.0708876,10.6271283 C9.85780289,10.531725 9.61536337,10.4677734 9.38104886,10.4515234 C8.98397224,10.423217 8.58270208,10.4436605 8.16832708,10.4436605 L8.16832708,10.4436605 Z M6.96163353,9.534971 C7.01981902,9.52107987 7.0782666,9.49565648 7.13671418,9.49539439 C7.83991982,9.49303552 8.54260128,9.48910406 9.24554482,9.49513229 C9.74038353,9.49985003 10.226311,9.56301535 10.6860287,9.75093874 C11.4953835,10.0822291 11.9472384,10.7694468 11.9283674,11.6178541 C11.919194,12.0338016 11.8589118,12.4353339 11.6468755,12.8064629 C11.4788714,13.1005355 11.2511093,13.3471686 10.9856053,13.5620879 C10.9130045,13.6205355 10.8972787,13.6703339 10.9313513,13.7563016 C11.1963311,14.4228137 11.4571174,15.0911605 11.7181658,15.758721 C11.8762101,16.1626121 12.0337303,16.5667654 12.18994,16.9714428 C12.2263714,17.0647492 12.1881053,17.126342 12.0851013,17.1276525 C11.753811,17.1305355 11.4219964,17.1279145 11.090444,17.1287008 C11.0099803,17.1289629 10.9764319,17.0809992 10.9520569,17.0175718 C10.8199601,16.6671484 10.686815,16.3175113 10.5549803,15.9676121 C10.3091335,15.3165637 10.0630247,14.6652533 9.81743999,14.0142049 C9.79856902,13.9641444 9.77996015,13.9235194 9.70604886,13.9237815 C9.21042386,13.9274508 8.71506095,13.9261404 8.21969805,13.9266645 C8.20921418,13.9266645 8.19846821,13.9303339 8.16832708,13.9355758 L8.16832708,14.0634791 L8.16832708,16.936846 C8.16832708,17.1229347 8.16203676,17.1289629 7.9636295,17.1289629 C7.68711741,17.1294871 7.40981902,17.1321081 7.13304482,17.1268662 C7.07564563,17.1258178 7.01877063,17.0964629 6.96163353,17.0799508 L6.96163353,9.534971 Z" id="Fill-4" fill="#FFCC00"></path>
            </g>
        </g>
    </g>
</svg>