<?xml version="1.0" encoding="UTF-8"?>
<svg width="26px" height="26px" viewBox="0 0 26 26" version="1.1" xmlns="http://www.w3.org/2000/svg" xmlns:xlink="http://www.w3.org/1999/xlink">
    <!-- Generator: Sketch 61 (89581) - https://sketch.com -->
    <title>Group 24</title>
    <desc>Created with Sketch.</desc>
    <defs>
        <polygon id="path-1" points="3.55271368e-15 3.55271368e-15 26 3.55271368e-15 26 26 3.55271368e-15 26"></polygon>
        <polygon id="path-3" points="9.01282051 6.99997682 16.6917133 6.99997682 16.6917133 18.9149707 9.01282051 18.9149707"></polygon>
    </defs>
    <g id="Page-1" stroke="none" stroke-width="1" fill="none" fill-rule="evenodd">
        <g id="Artboard" transform="translate(-542.000000, -261.000000)">
            <g id="Group-24" transform="translate(542.000000, 261.000000)">
                <mask id="mask-2" fill="white">
                    <use xlink:href="#path-1"></use>
                </mask>
                <g id="Clip-2"></g>
                <path d="M26,13 C26,20.1799708 20.1797057,26 13.0005923,26 C5.82029435,26 3.55271368e-15,20.1799708 3.55271368e-15,13 C3.55271368e-15,5.82002916 5.82029435,3.55271368e-15 13.0005923,3.55271368e-15 C20.1797057,3.55271368e-15 26,5.82002916 26,13" id="Fill-1" fill="#EF4545"></path>
                <path d="M22.9046727,13.0352087 C22.9046727,18.5578651 18.4285279,23.0352087 12.9046727,23.0352087 C7.38081754,23.0352087 2.90467273,18.5578651 2.90467273,13.0352087 C2.90467273,7.51135351 7.38081754,3.0352087 12.9046727,3.0352087 C18.4285279,3.0352087 22.9046727,7.51135351 22.9046727,13.0352087" id="Fill-4" fill="#C82929"></path>
                <path d="M22.9009182,13.5352087 C22.9009182,18.7815635 18.5459182,23.0352087 13.1745545,23.0352087 C7.80200909,23.0352087 3.44819091,18.7815635 3.44819091,13.5352087 C3.44819091,8.2888539 7.80200909,4.0352087 13.1745545,4.0352087 C18.5459182,4.0352087 22.9009182,8.2888539 22.9009182,13.5352087" id="Fill-6" fill="#E14545"></path>
                <mask id="mask-4" fill="white">
                    <use xlink:href="#path-3"></use>
                </mask>
                <g id="Clip-2"></g>
                <path d="M10.9441759,12.943508 C10.9441759,13.6837008 11.0468515,14.2187047 11.2521563,14.5482957 C11.5443672,15.0273299 11.9580596,15.2667698 12.4930326,15.2667698 C12.9346481,15.2667698 13.2922625,15.0863979 13.5660538,14.7255384 C13.858311,14.3400163 14.0046096,13.8050742 14.0046096,13.1207274 C14.0046096,11.6278869 13.494415,10.8814434 12.4743116,10.8814434 C12.0202567,10.8814434 11.6563607,11.0525591 11.3826854,11.3946127 C11.0901964,11.7678962 10.9441759,12.2841406 10.9441759,12.943508 L10.9441759,12.943508 Z M14.0046096,8.89406957 L12.026546,8.89406957 L12.026546,7.68105452 L14.0046096,7.68105452 L14.0046096,6.99997605 L15.8333458,6.99997605 L15.8333458,7.68105452 L16.5610297,7.68105452 L16.5610297,8.89406957 L15.8333458,8.89406957 L15.8333458,16.5543287 L14.1351928,16.5543287 L14.1351928,15.5373005 C13.5753177,16.3210159 12.8537531,16.7129122 11.9705454,16.7129122 C11.1432533,16.7129122 10.4620589,16.3926933 9.92715542,15.7518769 C9.35482544,15.0802246 9.06878793,14.1876602 9.06878793,13.0741298 C9.06878793,11.9296784 9.34544564,11.0369518 9.89920145,10.3962977 C10.4216346,9.78667255 11.1182122,9.48178273 11.9892122,9.48178273 C12.7666848,9.48178273 13.4384452,9.80227206 14.0046096,10.4428876 L14.0046096,8.89406957 Z M9.01281819,18.9149707 L16.6917133,18.9149707 L16.6917133,17.6926531 L9.01281819,17.6926531 L9.01281819,18.9149707 Z" id="Fill-1" fill="#FFCD00"></path>
            </g>
        </g>
    </g>
</svg>